<svg width="462" height="308" viewBox="0 0 462 308" fill="none" xmlns="http://www.w3.org/2000/svg">
<path d="M171.341 18.3344C161.578 8.5713 145.749 8.5713 135.986 18.3344L17.6777 136.643C7.91457 146.406 7.91456 162.235 17.6777 171.998L135.986 290.306C145.749 300.069 161.578 300.069 171.341 290.306L193.61 268.038C203.373 258.275 203.373 242.446 193.61 232.682L132.925 171.998C123.162 162.235 123.162 146.406 132.925 136.643L193.61 75.9582C203.373 66.1951 203.373 50.366 193.61 40.6029L171.341 18.3344Z" fill="black"/>
<path d="M325.377 17.6777C315.614 7.91457 299.785 7.91456 290.022 17.6777L267.753 39.9462C257.99 49.7093 257.99 65.5384 267.753 75.3015L328.438 135.986C338.201 145.749 338.201 161.578 328.438 171.341L267.753 232.026C257.99 241.789 257.99 257.618 267.753 267.381L290.022 289.65C299.785 299.413 315.614 299.413 325.377 289.65L443.685 171.341C453.449 161.578 453.449 145.749 443.685 135.986L325.377 17.6777Z" fill="#FF3333"/>
</svg>
