<svg width="1084" height="192" viewBox="0 0 1084 192" fill="none" xmlns="http://www.w3.org/2000/svg">
<path d="M8.1875 105.562C5.72917 99.6458 4.5 93.1875 4.5 86.1875C4.5 79.1875 5.72917 72.7292 8.1875 66.8125C10.6875 60.8542 14.0625 55.875 18.3125 51.875C22.5625 47.8333 27.5625 44.7083 33.3125 42.5C39.0625 40.25 45.1875 39.125 51.6875 39.125C62.5625 39.125 71.8958 41.75 79.6875 47C87.5208 52.25 92.7083 59.5208 95.25 68.8125C95.3333 69.1458 95.375 69.5625 95.375 70.0625C95.375 71.2292 94.9792 72.1458 94.1875 72.8125C93.4375 73.4792 92.4167 73.8125 91.125 73.8125H78.75C77.6667 73.8125 76.6875 73.5 75.8125 72.875C74.9792 72.25 74.375 71.4375 74 70.4375C72.25 66.4792 69.4583 63.2708 65.625 60.8125C61.7917 58.3542 57.2917 57.125 52.125 57.125C44.5833 57.125 38.5 59.875 33.875 65.375C29.2917 70.8333 27 77.7708 27 86.1875C27 94.6042 29.3125 101.562 33.9375 107.062C38.6042 112.521 44.6667 115.25 52.125 115.25C57.6667 115.25 62.5625 113.812 66.8125 110.938C71.1042 108.021 74.125 103.875 75.875 98.5C76.2083 97.4167 76.7917 96.5417 77.625 95.875C78.4583 95.2083 79.4167 94.875 80.5 94.875H92.9375C94.2292 94.875 95.2708 95.25 96.0625 96C96.8542 96.7083 97.25 97.6667 97.25 98.875C97.25 99.2917 97.2083 99.625 97.125 99.875C94.75 110.5 89.4167 118.729 81.125 124.562C72.8333 130.396 63.0208 133.312 51.6875 133.312C45.1875 133.312 39.0625 132.188 33.3125 129.938C27.5625 127.688 22.5625 124.542 18.3125 120.5C14.0625 116.458 10.6875 111.479 8.1875 105.562ZM107.25 98.375C107.25 88.25 110.542 79.9583 117.125 73.5C123.75 67.0417 132.146 63.8125 142.312 63.8125C152.438 63.8125 160.812 67.0417 167.438 73.5C174.062 79.9583 177.375 88.25 177.375 98.375C177.375 108.5 174.062 116.792 167.438 123.25C160.854 129.708 152.479 132.938 142.312 132.938C132.104 132.938 123.708 129.729 117.125 123.312C110.542 116.854 107.25 108.542 107.25 98.375ZM127.812 98.375C127.812 103.875 129.167 108.292 131.875 111.625C134.583 114.917 138.062 116.562 142.312 116.562C146.521 116.562 149.979 114.917 152.688 111.625C155.396 108.292 156.75 103.875 156.75 98.375C156.75 92.9167 155.396 88.5208 152.688 85.1875C149.979 81.8542 146.521 80.1875 142.312 80.1875C138.062 80.1875 134.583 81.8542 131.875 85.1875C129.167 88.5208 127.812 92.9167 127.812 98.375ZM185.875 98.375C185.875 88.25 188.75 79.9583 194.5 73.5C200.25 67.0417 207.396 63.8125 215.938 63.8125C223.812 63.8125 229.917 66.6667 234.25 72.375V45.875C234.25 44.5417 234.646 43.4583 235.438 42.625C236.271 41.7917 237.354 41.375 238.688 41.375H250.25C251.583 41.375 252.646 41.7917 253.438 42.625C254.271 43.4583 254.688 44.5417 254.688 45.875V126.5C254.688 127.833 254.271 128.917 253.438 129.75C252.646 130.583 251.583 131 250.25 131H238.688C237.646 131 236.792 130.688 236.125 130.062C235.458 129.438 235.125 128.604 235.125 127.562V124.062C230.458 129.979 224.021 132.938 215.812 132.938C207.104 132.938 199.938 129.708 194.312 123.25C188.688 116.75 185.875 108.458 185.875 98.375ZM206.438 98.375C206.438 103.792 207.812 108.188 210.562 111.562C213.354 114.896 216.812 116.562 220.938 116.562C225.146 116.562 228.625 114.875 231.375 111.5C234.125 108.083 235.5 103.708 235.5 98.375C235.5 93.0833 234.104 88.7292 231.312 85.3125C228.562 81.8958 225.104 80.1875 220.938 80.1875C216.854 80.1875 213.417 81.9167 210.625 85.375C207.833 88.7917 206.438 93.125 206.438 98.375ZM270.875 116.312C267.875 111.021 266.375 105.042 266.375 98.375C266.375 91.7083 267.875 85.75 270.875 80.5C273.875 75.2083 278.042 71.1042 283.375 68.1875C288.708 65.2708 294.729 63.8125 301.438 63.8125C304.854 63.8125 308.167 64.2292 311.375 65.0625C314.625 65.8542 317.688 67.125 320.562 68.875C323.479 70.625 326.021 72.7708 328.188 75.3125C330.396 77.8542 332.125 80.9792 333.375 84.6875C334.667 88.3542 335.312 92.3958 335.312 96.8125C335.312 97.8125 335.292 98.5833 335.25 99.125C335.208 99.6667 335.083 100.333 334.875 101.125C334.667 101.917 334.271 102.521 333.688 102.938C333.146 103.312 332.417 103.5 331.5 103.5H287.062C287.354 108.625 288.812 112.312 291.438 114.562C294.062 116.812 297.396 117.938 301.438 117.938C306.562 117.938 310.604 116.062 313.562 112.312C314.854 110.688 316.312 109.875 317.938 109.875H328.812C330.188 109.875 331.271 110.167 332.062 110.75C332.896 111.333 333.312 112.146 333.312 113.188C333.312 113.729 333.083 114.458 332.625 115.375C329.792 121.042 325.604 125.396 320.062 128.438C314.562 131.438 308.354 132.938 301.438 132.938C294.729 132.938 288.708 131.479 283.375 128.562C278.042 125.646 273.875 121.562 270.875 116.312ZM287.312 91.1875H315.75C315.25 87.6042 313.625 84.6458 310.875 82.3125C308.125 79.9375 304.979 78.75 301.438 78.75C298.104 78.75 295.104 79.8958 292.438 82.1875C289.771 84.4375 288.062 87.4375 287.312 91.1875ZM471.875 98.375C471.875 91.625 473.417 85.6042 476.5 80.3125C479.583 75.0208 483.75 70.9583 489 68.125C494.292 65.25 500.188 63.8125 506.688 63.8125C514.729 63.8125 521.562 65.7917 527.188 69.75C532.812 73.7083 536.604 78.8958 538.562 85.3125C538.729 85.9792 538.812 86.4375 538.812 86.6875C538.812 87.7708 538.417 88.6458 537.625 89.3125C536.875 89.9792 535.854 90.3125 534.562 90.3125H523.438C521.354 90.3125 519.812 89.2917 518.812 87.25C517.562 84.9167 515.896 83.1667 513.812 82C511.729 80.7917 509.438 80.1875 506.938 80.1875C502.771 80.1875 499.312 81.8958 496.562 85.3125C493.812 88.7292 492.438 93.0833 492.438 98.375C492.438 103.792 493.792 108.188 496.5 111.562C499.208 114.896 502.688 116.562 506.938 116.562C509.688 116.562 512.208 115.833 514.5 114.375C516.833 112.917 518.583 110.771 519.75 107.938C520.583 105.646 522.146 104.5 524.438 104.5H535.312C536.604 104.5 537.646 104.854 538.438 105.562C539.271 106.229 539.688 107.104 539.688 108.188C539.688 108.812 539.646 109.25 539.562 109.5C537.562 117.167 533.583 123 527.625 127C521.708 130.958 514.729 132.938 506.688 132.938C500.188 132.938 494.312 131.542 489.062 128.75C483.812 125.958 479.625 121.917 476.5 116.625C473.417 111.333 471.875 105.25 471.875 98.375ZM549.625 98.375C549.625 91.625 551.167 85.6042 554.25 80.3125C557.333 75.0208 561.5 70.9583 566.75 68.125C572.042 65.25 577.938 63.8125 584.438 63.8125C592.479 63.8125 599.312 65.7917 604.938 69.75C610.562 73.7083 614.354 78.8958 616.312 85.3125C616.479 85.9792 616.562 86.4375 616.562 86.6875C616.562 87.7708 616.167 88.6458 615.375 89.3125C614.625 89.9792 613.604 90.3125 612.312 90.3125H601.188C599.104 90.3125 597.562 89.2917 596.562 87.25C595.312 84.9167 593.646 83.1667 591.562 82C589.479 80.7917 587.188 80.1875 584.688 80.1875C580.521 80.1875 577.062 81.8958 574.312 85.3125C571.562 88.7292 570.188 93.0833 570.188 98.375C570.188 103.792 571.542 108.188 574.25 111.562C576.958 114.896 580.438 116.562 584.688 116.562C587.438 116.562 589.958 115.833 592.25 114.375C594.583 112.917 596.333 110.771 597.5 107.938C598.333 105.646 599.896 104.5 602.188 104.5H613.062C614.354 104.5 615.396 104.854 616.188 105.562C617.021 106.229 617.438 107.104 617.438 108.188C617.438 108.812 617.396 109.25 617.312 109.5C615.312 117.167 611.333 123 605.375 127C599.458 130.958 592.479 132.938 584.438 132.938C577.938 132.938 572.062 131.542 566.812 128.75C561.562 125.958 557.375 121.917 554.25 116.625C551.167 111.333 549.625 105.25 549.625 98.375ZM631.875 116.312C628.875 111.021 627.375 105.042 627.375 98.375C627.375 91.7083 628.875 85.75 631.875 80.5C634.875 75.2083 639.042 71.1042 644.375 68.1875C649.708 65.2708 655.729 63.8125 662.438 63.8125C665.854 63.8125 669.167 64.2292 672.375 65.0625C675.625 65.8542 678.688 67.125 681.562 68.875C684.479 70.625 687.021 72.7708 689.188 75.3125C691.396 77.8542 693.125 80.9792 694.375 84.6875C695.667 88.3542 696.312 92.3958 696.312 96.8125C696.312 97.8125 696.292 98.5833 696.25 99.125C696.208 99.6667 696.083 100.333 695.875 101.125C695.667 101.917 695.271 102.521 694.688 102.938C694.146 103.312 693.417 103.5 692.5 103.5H648.062C648.354 108.625 649.812 112.312 652.438 114.562C655.062 116.812 658.396 117.938 662.438 117.938C667.562 117.938 671.604 116.062 674.562 112.312C675.854 110.688 677.312 109.875 678.938 109.875H689.812C691.188 109.875 692.271 110.167 693.062 110.75C693.896 111.333 694.312 112.146 694.312 113.188C694.312 113.729 694.083 114.458 693.625 115.375C690.792 121.042 686.604 125.396 681.062 128.438C675.562 131.438 669.354 132.938 662.438 132.938C655.729 132.938 649.708 131.479 644.375 128.562C639.042 125.646 634.875 121.562 631.875 116.312ZM648.312 91.1875H676.75C676.25 87.6042 674.625 84.6458 671.875 82.3125C669.125 79.9375 665.979 78.75 662.438 78.75C659.104 78.75 656.104 79.8958 653.438 82.1875C650.771 84.4375 649.062 87.4375 648.312 91.1875ZM708.062 126.5V45.875C708.062 44.5417 708.458 43.4583 709.25 42.625C710.083 41.7917 711.167 41.375 712.5 41.375H724.062C725.396 41.375 726.458 41.7917 727.25 42.625C728.083 43.4583 728.5 44.5417 728.5 45.875V126.5C728.5 127.833 728.083 128.917 727.25 129.75C726.458 130.583 725.396 131 724.062 131H712.5C711.167 131 710.083 130.583 709.25 129.75C708.458 128.917 708.062 127.833 708.062 126.5ZM744.75 116.312C741.75 111.021 740.25 105.042 740.25 98.375C740.25 91.7083 741.75 85.75 744.75 80.5C747.75 75.2083 751.917 71.1042 757.25 68.1875C762.583 65.2708 768.604 63.8125 775.312 63.8125C778.729 63.8125 782.042 64.2292 785.25 65.0625C788.5 65.8542 791.562 67.125 794.438 68.875C797.354 70.625 799.896 72.7708 802.062 75.3125C804.271 77.8542 806 80.9792 807.25 84.6875C808.542 88.3542 809.188 92.3958 809.188 96.8125C809.188 97.8125 809.167 98.5833 809.125 99.125C809.083 99.6667 808.958 100.333 808.75 101.125C808.542 101.917 808.146 102.521 807.562 102.938C807.021 103.312 806.292 103.5 805.375 103.5H760.938C761.229 108.625 762.688 112.312 765.312 114.562C767.938 116.812 771.271 117.938 775.312 117.938C780.438 117.938 784.479 116.062 787.438 112.312C788.729 110.688 790.188 109.875 791.812 109.875H802.688C804.062 109.875 805.146 110.167 805.938 110.75C806.771 111.333 807.188 112.146 807.188 113.188C807.188 113.729 806.958 114.458 806.5 115.375C803.667 121.042 799.479 125.396 793.938 128.438C788.438 131.438 782.229 132.938 775.312 132.938C768.604 132.938 762.583 131.479 757.25 128.562C751.917 125.646 747.75 121.562 744.75 116.312ZM761.188 91.1875H789.625C789.125 87.6042 787.5 84.6458 784.75 82.3125C782 79.9375 778.854 78.75 775.312 78.75C771.979 78.75 768.979 79.8958 766.312 82.1875C763.646 84.4375 761.938 87.4375 761.188 91.1875ZM820.938 126.5V70.1875C820.938 68.8542 821.333 67.7917 822.125 67C822.958 66.1667 824.042 65.75 825.375 65.75H836.312C837.562 65.75 838.604 66.1667 839.438 67C840.312 67.7917 840.75 68.8125 840.75 70.0625V77H841.125C846.375 68.375 854.021 64.0625 864.062 64.0625C865.438 64.0625 866.521 64.4583 867.312 65.25C868.146 66 868.562 67.0625 868.562 68.4375V80.4375C868.562 81.8958 867.875 82.625 866.5 82.625C866.25 82.625 865.792 82.6042 865.125 82.5625C864.5 82.5208 864.062 82.5 863.812 82.5C856.938 82.5 851.479 84.5625 847.438 88.6875C843.396 92.7708 841.375 98.6042 841.375 106.188V126.5C841.375 127.833 840.958 128.917 840.125 129.75C839.333 130.583 838.271 131 836.938 131H825.375C824.042 131 822.958 130.583 822.125 129.75C821.333 128.917 820.938 127.833 820.938 126.5ZM876.375 98.375C876.375 88.25 879.25 79.9583 885 73.5C890.75 67.0417 897.896 63.8125 906.438 63.8125C910.271 63.8125 913.792 64.5417 917 66C920.25 67.4583 922.917 69.5833 925 72.375V69.0625C925 68.0208 925.312 67.2083 925.938 66.625C926.562 66.0417 927.396 65.75 928.438 65.75H940.75C942.083 65.75 943.146 66.1667 943.938 67C944.771 67.7917 945.188 68.8542 945.188 70.1875V126.5C945.188 127.833 944.771 128.917 943.938 129.75C943.146 130.583 942.083 131 940.75 131H929.188C928.146 131 927.312 130.688 926.688 130.062C926.062 129.438 925.75 128.604 925.75 127.562V124.188C921.167 130.021 914.688 132.938 906.312 132.938C897.604 132.938 890.438 129.708 884.812 123.25C879.188 116.75 876.375 108.458 876.375 98.375ZM896.938 98.375C896.938 103.708 898.333 108.083 901.125 111.5C903.917 114.875 907.354 116.562 911.438 116.562C915.646 116.562 919.125 114.875 921.875 111.5C924.625 108.083 926 103.708 926 98.375C926 93.125 924.604 88.7917 921.812 85.375C919.062 81.9167 915.604 80.1875 911.438 80.1875C907.354 80.1875 903.917 81.9167 901.125 85.375C898.333 88.7917 896.938 93.125 896.938 98.375ZM954.562 76.5V70.1875C954.562 68.8542 954.958 67.7917 955.75 67C956.583 66.1667 957.667 65.75 959 65.75H965.938V51.375C965.938 50.0417 966.354 48.9583 967.188 48.125C968.021 47.2917 969.104 46.875 970.438 46.875H981.938C983.271 46.875 984.354 47.2917 985.188 48.125C986.021 48.9583 986.438 50.0417 986.438 51.375V65.75H997.188C998.521 65.75 999.583 66.1667 1000.38 67C1001.21 67.7917 1001.62 68.8542 1001.62 70.1875V76.5C1001.62 77.8333 1001.21 78.9167 1000.38 79.75C999.583 80.5417 998.521 80.9375 997.188 80.9375H986.438V109.875C986.438 112.417 987.042 114.188 988.25 115.188C989.458 116.188 991.5 116.688 994.375 116.688C994.75 116.688 995.542 116.604 996.75 116.438C997.958 116.229 998.917 116.125 999.625 116.125C1000.75 116.125 1001.62 116.5 1002.25 117.25C1002.88 118 1003.19 119 1003.19 120.25V127.812C1003.19 128.729 1002.67 129.542 1001.62 130.25C1000.58 130.917 999.25 131.417 997.625 131.75C996.042 132.125 994.458 132.396 992.875 132.562C991.333 132.729 989.854 132.812 988.438 132.812C980.104 132.812 974.271 131.25 970.938 128.125C967.604 124.958 965.938 119.312 965.938 111.188V80.9375H959C957.667 80.9375 956.583 80.5417 955.75 79.75C954.958 78.9167 954.562 77.8333 954.562 76.5ZM1014.88 116.312C1011.88 111.021 1010.38 105.042 1010.38 98.375C1010.38 91.7083 1011.88 85.75 1014.88 80.5C1017.88 75.2083 1022.04 71.1042 1027.38 68.1875C1032.71 65.2708 1038.73 63.8125 1045.44 63.8125C1048.85 63.8125 1052.17 64.2292 1055.38 65.0625C1058.62 65.8542 1061.69 67.125 1064.56 68.875C1067.48 70.625 1070.02 72.7708 1072.19 75.3125C1074.4 77.8542 1076.12 80.9792 1077.38 84.6875C1078.67 88.3542 1079.31 92.3958 1079.31 96.8125C1079.31 97.8125 1079.29 98.5833 1079.25 99.125C1079.21 99.6667 1079.08 100.333 1078.88 101.125C1078.67 101.917 1078.27 102.521 1077.69 102.938C1077.15 103.312 1076.42 103.5 1075.5 103.5H1031.06C1031.35 108.625 1032.81 112.312 1035.44 114.562C1038.06 116.812 1041.4 117.938 1045.44 117.938C1050.56 117.938 1054.6 116.062 1057.56 112.312C1058.85 110.688 1060.31 109.875 1061.94 109.875H1072.81C1074.19 109.875 1075.27 110.167 1076.06 110.75C1076.9 111.333 1077.31 112.146 1077.31 113.188C1077.31 113.729 1077.08 114.458 1076.62 115.375C1073.79 121.042 1069.6 125.396 1064.06 128.438C1058.56 131.438 1052.35 132.938 1045.44 132.938C1038.73 132.938 1032.71 131.479 1027.38 128.562C1022.04 125.646 1017.88 121.562 1014.88 116.312ZM1031.31 91.1875H1059.75C1059.25 87.6042 1057.62 84.6458 1054.88 82.3125C1052.12 79.9375 1048.98 78.75 1045.44 78.75C1042.1 78.75 1039.1 79.8958 1036.44 82.1875C1033.77 84.4375 1032.06 87.4375 1031.31 91.1875Z" fill="black"/>
<path d="M460.658 71.4357C464.563 67.5304 464.563 61.1988 460.658 57.2935L411.435 8.07107C407.53 4.16583 401.199 4.16582 397.293 8.07107L348.071 57.2935C344.166 61.1988 344.166 67.5304 348.071 71.4357L357.69 81.0553C361.596 84.9605 367.927 84.9605 371.833 81.0553L397.293 55.5945C401.199 51.6893 407.53 51.6893 411.435 55.5945L436.896 81.0553C440.801 84.9605 447.133 84.9605 451.038 81.0553L460.658 71.4357Z" fill="black"/>
<path d="M460.929 134.954C464.834 131.049 464.834 124.717 460.929 120.812L451.309 111.192C447.404 107.287 441.072 107.287 437.167 111.192L411.706 136.653C407.801 140.558 401.47 140.558 397.564 136.653L372.104 111.192C368.198 107.287 361.867 107.287 357.961 111.192L348.342 120.812C344.437 124.717 344.437 131.049 348.342 134.954L397.564 184.176C401.47 188.082 407.801 188.082 411.706 184.176L460.929 134.954Z" fill="#FF3333"/>
</svg>
